<svg width="29" height="29" viewBox="0 0 29 29" fill="none" xmlns="http://www.w3.org/2000/svg">
<path d="M14.5062 7.8127C10.5312 7.8127 7.32499 11.0189 7.32499 14.9939C7.32499 18.9689 10.5312 22.1752 14.5062 22.1752C18.4812 22.1752 21.6875 18.9689 21.6875 14.9939C21.6875 11.0189 18.4812 7.8127 14.5062 7.8127ZM14.5062 19.6627C11.9375 19.6627 9.83749 17.5689 9.83749 14.9939C9.83749 12.4189 11.9312 10.3252 14.5062 10.3252C17.0812 10.3252 19.175 12.4189 19.175 14.9939C19.175 17.5689 17.075 19.6627 14.5062 19.6627ZM23.6562 7.51895C23.6562 8.4502 22.9062 9.19395 21.9812 9.19395C21.05 9.19395 20.3062 8.44395 20.3062 7.51895C20.3062 6.59395 21.0562 5.84395 21.9812 5.84395C22.9062 5.84395 23.6562 6.59395 23.6562 7.51895ZM28.4125 9.21895C28.3062 6.9752 27.7937 4.9877 26.15 3.3502C24.5125 1.7127 22.525 1.2002 20.2812 1.0877C17.9687 0.956445 11.0375 0.956445 8.72499 1.0877C6.48749 1.19395 4.49999 1.70645 2.85624 3.34395C1.21249 4.98145 0.706238 6.96895 0.593738 9.2127C0.462488 11.5252 0.462488 18.4564 0.593738 20.7689C0.699988 23.0127 1.21249 25.0002 2.85624 26.6377C4.49999 28.2752 6.48124 28.7877 8.72499 28.9002C11.0375 29.0314 17.9687 29.0314 20.2812 28.9002C22.525 28.7939 24.5125 28.2814 26.15 26.6377C27.7875 25.0002 28.3 23.0127 28.4125 20.7689C28.5437 18.4564 28.5437 11.5314 28.4125 9.21895ZM25.425 23.2502C24.9375 24.4752 23.9937 25.4189 22.7625 25.9127C20.9187 26.6439 16.5437 26.4752 14.5062 26.4752C12.4687 26.4752 8.08749 26.6377 6.24999 25.9127C5.02499 25.4252 4.08124 24.4814 3.58749 23.2502C2.85624 21.4064 3.02499 17.0314 3.02499 14.9939C3.02499 12.9564 2.86249 8.5752 3.58749 6.7377C4.07499 5.5127 5.01874 4.56895 6.24999 4.0752C8.09374 3.34395 12.4687 3.5127 14.5062 3.5127C16.5437 3.5127 20.925 3.35019 22.7625 4.0752C23.9875 4.5627 24.9312 5.50644 25.425 6.7377C26.1562 8.58145 25.9875 12.9564 25.9875 14.9939C25.9875 17.0314 26.1562 21.4127 25.425 23.2502Z" fill="white"/>
</svg>
