<svg width="29" height="28" viewBox="0 0 29 28" fill="none" xmlns="http://www.w3.org/2000/svg">
<path d="M26.5 0H2.49375C1.39375 0 0.5 0.90625 0.5 2.01875V25.9813C0.5 27.0938 1.39375 28 2.49375 28H26.5C27.6 28 28.5 27.0938 28.5 25.9813V2.01875C28.5 0.90625 27.6 0 26.5 0ZM8.9625 24H4.8125V10.6375H8.96875V24H8.9625ZM6.8875 8.8125C5.55625 8.8125 4.48125 7.73125 4.48125 6.40625C4.48125 5.08125 5.55625 4 6.8875 4C8.2125 4 9.29375 5.08125 9.29375 6.40625C9.29375 7.7375 8.21875 8.8125 6.8875 8.8125ZM24.5187 24H20.3687V17.5C20.3687 15.95 20.3375 13.9563 18.2125 13.9563C16.05 13.9563 15.7188 15.6438 15.7188 17.3875V24H11.5688V10.6375H15.55V12.4625H15.6062C16.1625 11.4125 17.5188 10.3062 19.5375 10.3062C23.7375 10.3062 24.5187 13.075 24.5187 16.675V24Z" fill="white"/>
</svg>
